<?xml version="1.0" encoding="UTF-8"?>
<svg version="1.1" xmlns="http://www.w3.org/2000/svg" width="128" height="129">
<path d="M0 0 C2.56360168 1.25066398 3.95352262 2.83677949 5.8046875 5.00390625 C6.49304687 5.80828125 7.18140625 6.61265625 7.890625 7.44140625 C10.68127083 10.86288773 13.35157217 14.35743532 15.9296875 17.94140625 C19.11190793 16.88066611 19.59772229 16.42787623 21.5234375 13.88671875 C21.99652344 13.27183594 22.46960938 12.65695313 22.95703125 12.0234375 C23.44300781 11.37761719 23.92898437 10.73179688 24.4296875 10.06640625 C25.39663717 8.7968039 26.36533316 7.52852931 27.3359375 6.26171875 C27.76197266 5.69727051 28.18800781 5.13282227 28.62695312 4.55126953 C29.27180664 3.75438721 29.27180664 3.75438721 29.9296875 2.94140625 C30.39568359 2.3572998 30.86167969 1.77319336 31.34179688 1.17138672 C32.9296875 -0.05859375 32.9296875 -0.05859375 34.87915039 0.13745117 C36.90600051 0.93211928 38.81134031 1.7912342 40.73828125 2.8046875 C41.47578613 3.19132568 42.21329102 3.57796387 42.97314453 3.97631836 C43.76317871 4.39792236 44.55321289 4.81952637 45.3671875 5.25390625 C46.18815918 5.69033447 47.00913086 6.1267627 47.85498047 6.57641602 C54.45836033 10.11052305 61.02300829 13.7140803 67.5546875 17.37890625 C68.47306396 17.88655518 69.39144043 18.3942041 70.33764648 18.91723633 C71.18528564 19.39829834 72.0329248 19.87936035 72.90625 20.375 C73.65986816 20.79837646 74.41348633 21.22175293 75.18994141 21.65795898 C76.9296875 22.94140625 76.9296875 22.94140625 77.9296875 25.94140625 C76.77734375 27.66796875 76.77734375 27.66796875 74.9921875 29.56640625 C74.033125 30.60667969 74.033125 30.60667969 73.0546875 31.66796875 C72.3534375 32.41820312 71.6521875 33.1684375 70.9296875 33.94140625 C69.44667211 35.60464921 67.9674081 37.27124578 66.4921875 38.94140625 C65.3050016 40.27501926 64.11761761 41.6084561 62.9296875 42.94140625 C66.18416847 45.11106023 69.455046 46.30283887 73.1171875 47.56640625 C73.77138672 47.79585937 74.42558594 48.0253125 75.09960938 48.26171875 C76.70832885 48.82535769 78.31883727 49.38388609 79.9296875 49.94140625 C79.9296875 51.26140625 79.9296875 52.58140625 79.9296875 53.94140625 C78.50854492 55.28173828 78.50854492 55.28173828 76.53515625 56.44921875 C75.47264648 57.09310547 75.47264648 57.09310547 74.38867188 57.75 C73.63908203 58.18441406 72.88949219 58.61882812 72.1171875 59.06640625 C71.37919922 59.50855469 70.64121094 59.95070312 69.88085938 60.40625 C68.50430469 61.23093706 67.12403526 62.04947649 65.73901367 62.85986328 C64.1047699 63.83674898 62.51387682 64.88528004 60.9296875 65.94140625 C60.94628471 67.96077657 60.97682466 69.98159274 61.09828186 71.99737549 C61.53723965 81.79943158 61.53723965 81.79943158 58.64727783 85.65014648 C54.48080837 89.37138616 49.46685968 91.73904959 44.4921875 94.19140625 C43.03637566 94.96773109 41.58385202 95.75025519 40.13476562 96.5390625 C37.34698091 98.04838356 34.54243673 99.51309208 31.71533203 100.94726562 C27.6445908 103.03817686 23.85752159 105.49098834 20.12084961 108.13183594 C16.83811543 109.3447102 15.07971746 108.31300509 11.9296875 106.94140625 C9.95200802 105.91531512 8.00189781 104.8348491 6.078125 103.7109375 C4.97855469 103.07220703 3.87898438 102.43347656 2.74609375 101.77539062 C1.61042969 101.10830078 0.47476563 100.44121094 -0.6953125 99.75390625 C-2.36400391 98.78227539 -2.36400391 98.78227539 -4.06640625 97.79101562 C-6.29743115 96.49109949 -8.52189019 95.17984631 -10.73950195 93.85717773 C-12.97845891 92.56940414 -15.26131715 91.35539318 -17.57885742 90.21508789 C-25.67537847 86.10348501 -25.67537847 86.10348501 -26.79589844 82.80639648 C-26.79279242 80.38603392 -26.51043145 78.14356753 -26.1328125 75.75390625 C-25.89793306 72.27047907 -25.91151005 69.25749385 -27.0703125 65.94140625 C-31.74886529 60.95324335 -38.19357216 58.00537115 -44.34204102 55.19555664 C-44.91237061 54.78168701 -45.4827002 54.36781738 -46.0703125 53.94140625 C-46.0703125 52.62140625 -46.0703125 51.30140625 -46.0703125 49.94140625 C-40.4603125 47.96140625 -34.8503125 45.98140625 -29.0703125 43.94140625 C-32.82412825 38.6860642 -36.68330087 34.18009888 -41.43359375 29.80078125 C-43.21234142 27.78005598 -43.52545308 26.52221369 -44.0703125 23.94140625 C-36.71610916 19.18773869 -29.06032559 15.01556695 -21.3828125 10.81640625 C-19.41900179 9.74040515 -17.45557091 8.66372188 -15.49272156 7.58596802 C-13.72028132 6.61303981 -11.94672122 5.64215251 -10.1730957 4.67138672 C-8.18615376 3.56355206 -6.22183297 2.41348164 -4.2902832 1.21166992 C-2.0703125 -0.05859375 -2.0703125 -0.05859375 0 0 Z M-8.07421875 8.046875 C-8.67153305 8.36795731 -9.26884735 8.68903961 -9.88426208 9.01985168 C-11.8025619 10.05233095 -13.71766138 11.0906003 -15.6328125 12.12890625 C-16.89628659 12.80961202 -18.15995642 13.48995464 -19.42382812 14.16992188 C-25.9993433 17.71236831 -32.5550129 21.28913722 -39.0703125 24.94140625 C-37.66807597 26.58304902 -36.26463468 28.22367648 -34.85546875 29.859375 C-33.64548225 31.27058464 -32.44521673 32.69017688 -31.25390625 34.1171875 C-30.35865234 35.17486328 -30.35865234 35.17486328 -29.4453125 36.25390625 C-28.62160156 37.23810547 -28.62160156 37.23810547 -27.78125 38.2421875 C-25.77809052 40.23162671 -24.81449702 41.1747814 -22.0703125 41.94140625 C-19.2954776 40.85013178 -16.90145496 39.70625121 -14.3125 38.26953125 C-13.56823761 37.87191589 -12.82397522 37.47430054 -12.05715942 37.06463623 C-9.67821351 35.7883722 -7.31220573 34.48986016 -4.9453125 33.19140625 C-3.34319292 32.33064315 -1.74033603 31.47125088 -0.13671875 30.61328125 C1.38867638 29.79158038 2.91343829 28.96870267 4.4375 28.14453125 C5.15833771 27.75485168 5.87917542 27.36517212 6.62185669 26.96368408 C9.34692651 25.46704343 11.71923495 24.1518588 13.9296875 21.94140625 C11.64764998 19.10019398 9.35252008 16.26985379 7.0546875 13.44140625 C6.07822266 12.22517578 6.07822266 12.22517578 5.08203125 10.984375 C4.45683594 10.21738281 3.83164062 9.45039063 3.1875 8.66015625 C2.6114502 7.94794922 2.03540039 7.23574219 1.44189453 6.50195312 C0.94286621 5.98697266 0.44383789 5.47199219 -0.0703125 4.94140625 C-3.19653738 4.94140625 -5.34174474 6.57198834 -8.07421875 8.046875 Z M32.6328125 6.16308594 C32.15328125 6.72415039 31.67375 7.28521484 31.1796875 7.86328125 C30.65375 8.476875 30.1278125 9.09046875 29.5859375 9.72265625 C28.76609375 10.6971875 28.76609375 10.6971875 27.9296875 11.69140625 C27.383125 12.325625 26.8365625 12.95984375 26.2734375 13.61328125 C23.71708125 16.62075919 21.60068848 19.34126616 19.9296875 22.94140625 C20.70046631 23.33932373 21.47124512 23.73724121 22.26538086 24.1472168 C25.16780648 25.64644407 28.06958171 27.1469163 30.97094727 28.64819336 C32.21874197 29.29353794 33.46678234 29.93840778 34.71508789 30.58276367 C35.92773711 31.20878836 37.14003071 31.83550239 38.35195923 32.46292114 C40.12409988 33.38005122 41.8977354 34.29429094 43.67138672 35.20849609 C47.22707509 37.09957028 50.66745303 39.13816613 54.06469727 41.30004883 C55.95640767 42.16135814 55.95640767 42.16135814 57.96948242 41.26489258 C60.00089555 39.89332818 61.51668646 38.4957074 63.1640625 36.68359375 C64.02451172 35.74580078 64.02451172 35.74580078 64.90234375 34.7890625 C65.78212891 33.81259766 65.78212891 33.81259766 66.6796875 32.81640625 C67.28167969 32.15769531 67.88367188 31.49898437 68.50390625 30.8203125 C69.98448965 29.19872116 71.45945875 27.57238171 72.9296875 25.94140625 C69.82246835 23.47334936 66.59739815 21.59086981 63.09765625 19.7265625 C61.96908203 19.12263672 60.84050781 18.51871094 59.67773438 17.89648438 C58.49097693 17.26545286 57.30412729 16.63459471 56.1171875 16.00390625 C53.79774193 14.76644028 51.4787195 13.52818082 49.16015625 12.2890625 C47.53279541 11.42112061 47.53279541 11.42112061 45.87255859 10.53564453 C43.46387573 9.23079144 41.09124003 7.88858109 38.73046875 6.5 C35.50120446 4.48332807 35.50120446 4.48332807 32.6328125 6.16308594 Z M10.1875 28.35546875 C9.20265625 28.86980469 8.2178125 29.38414063 7.203125 29.9140625 C6.16414063 30.45933594 5.12515625 31.00460938 4.0546875 31.56640625 C3.054375 32.08847656 2.0540625 32.61054687 1.0234375 33.1484375 C-5.71450065 36.67410281 -12.40620801 40.27820306 -19.0703125 43.94140625 C-19.0703125 44.60140625 -19.0703125 45.26140625 -19.0703125 45.94140625 C-15.46995347 48.11472635 -11.85881834 50.26848702 -8.23657227 52.4050293 C-7.00656003 53.13415943 -5.77961963 53.86849817 -4.5559082 54.6081543 C-2.79384179 55.67197596 -1.02148874 56.71642665 0.75390625 57.7578125 C1.81697998 58.39146729 2.88005371 59.02512207 3.9753418 59.67797852 C7.31602206 61.10662246 8.55038553 61.11925858 11.9296875 59.94140625 C13.2496875 59.28140625 14.5696875 58.62140625 15.9296875 57.94140625 C15.9296875 47.38140625 15.9296875 36.82140625 15.9296875 25.94140625 C13.90726118 25.94140625 11.9230079 27.44789224 10.1875 28.35546875 Z M18.9296875 26.94140625 C18.80605523 31.30125086 18.71533842 35.6601668 18.6550293 40.02124023 C18.6298894 41.50449393 18.59577158 42.98762378 18.55249023 44.47045898 C18.49180492 46.6030122 18.46347634 48.7339283 18.44140625 50.8671875 C18.41522217 52.15020752 18.38903809 53.43322754 18.36206055 54.75512695 C18.61689685 58.07027916 18.61689685 58.07027916 21.14770508 59.94604492 C24.39034379 61.10622377 25.69808204 61.04502762 28.9296875 59.94140625 C31.42445144 58.7735169 31.42445144 58.7735169 33.90625 57.2890625 C34.8240625 56.75990234 35.741875 56.23074219 36.6875 55.68554688 C37.63367188 55.13060547 38.57984375 54.57566406 39.5546875 54.00390625 C40.50859375 53.45283203 41.4625 52.90175781 42.4453125 52.33398438 C45.99863425 50.27455917 49.51167979 48.22007806 52.9296875 45.94140625 C52.9296875 45.28140625 52.9296875 44.62140625 52.9296875 43.94140625 C51.9552771 43.43540894 51.9552771 43.43540894 50.96118164 42.91918945 C47.97083638 41.36540085 44.98150772 39.80966595 41.9921875 38.25390625 C40.97060547 37.72345703 39.94902344 37.19300781 38.89648438 36.64648438 C33.42772902 33.79853829 28.00643901 30.90255018 22.66967773 27.81323242 C20.95603528 26.79208421 20.95603528 26.79208421 18.9296875 26.94140625 Z M-33.0703125 49.19140625 C-33.74964844 49.44792969 -34.42898437 49.70445313 -35.12890625 49.96875 C-36.78662344 50.5991495 -38.43018578 51.26656244 -40.0703125 51.94140625 C-37.87119355 54.31546499 -35.64254473 55.93666741 -32.859375 57.578125 C-32.03348877 58.07006348 -31.20760254 58.56200195 -30.35668945 59.06884766 C-28.55802303 60.12319849 -26.75700991 61.1735546 -24.95385742 62.22021484 C-20.96266014 64.55182256 -17.0727305 66.82934841 -13.45703125 69.71875 C-8.25525111 73.89236433 -8.25525111 73.89236433 -1.87402344 74.67871094 C3.33983688 73.38543337 8.1154106 71.29377149 12.9296875 68.94140625 C9.81229928 66.49461898 6.56357715 64.48808202 3.1328125 62.5078125 C1.44671875 61.53424805 1.44671875 61.53424805 -0.2734375 60.54101562 C-0.85673828 60.20610107 -1.44003906 59.87118652 -2.04101562 59.52612305 C-3.80291335 58.51390217 -5.56175981 57.49653428 -7.3203125 56.47851562 C-9.56306584 55.18688428 -11.81224692 53.90633606 -14.06835938 52.63818359 C-15.86395529 51.62326886 -17.6468036 50.58442151 -19.40039062 49.49853516 C-24.71545822 46.38509013 -27.70410937 46.94037472 -33.0703125 49.19140625 Z M45.8671875 53.25390625 C42.88085938 55.15429688 42.88085938 55.15429688 39.89453125 57.0546875 C38.92628418 57.69229004 37.95803711 58.32989258 36.96044922 58.98681641 C32.05513228 62.15033883 26.99574659 65.04467258 21.9296875 67.94140625 C26.26882273 72.28054148 31.98707137 74.10505983 37.9296875 74.94140625 C43.39854787 73.27773525 47.66474993 70.33215508 52.3046875 67.06640625 C53.51914508 66.26239185 54.73659054 65.46287179 55.95703125 64.66796875 C58.2792136 63.14609856 60.58237286 61.60146795 62.87011719 60.02832031 C66.49502889 57.55579037 70.18921618 55.23395319 73.9296875 52.94140625 C63.35027361 45.88846365 56.11273739 46.26432888 45.8671875 53.25390625 Z M16.9296875 60.94140625 C15.6096875 61.93140625 14.2896875 62.92140625 12.9296875 63.94140625 C15.4046875 65.42640625 15.4046875 65.42640625 17.9296875 66.94140625 C18.9196875 66.28140625 19.9096875 65.62140625 20.9296875 64.94140625 C20.9296875 64.28140625 20.9296875 63.62140625 20.9296875 62.94140625 C19.6096875 62.28140625 18.2896875 61.62140625 16.9296875 60.94140625 Z M-23.0703125 67.94140625 C-23.0703125 72.56140625 -23.0703125 77.18140625 -23.0703125 81.94140625 C-19.28469551 84.11124253 -15.49867771 86.28034992 -11.71166992 88.44775391 C-10.42856229 89.18237832 -9.14567747 89.91739206 -7.86303711 90.65283203 C-5.99914821 91.72145195 -4.13441091 92.78857899 -2.26953125 93.85546875 C-1.15408936 94.49436035 -0.03864746 95.13325195 1.1105957 95.79150391 C6.02313454 98.5569464 10.98060542 101.24190693 15.9296875 103.94140625 C15.9296875 93.38140625 15.9296875 82.82140625 15.9296875 71.94140625 C8.69498707 74.09354986 8.69498707 74.09354986 1.6171875 76.69140625 C-2.33682839 78.03175062 -3.22481721 78.14687357 -7.0703125 76.94140625 C-9.7380763 75.55234807 -12.27543599 73.97987384 -14.8203125 72.37890625 C-18.77007309 69.44890491 -18.77007309 69.44890491 -23.0703125 67.94140625 Z M52.2890625 70.1640625 C51.17724609 70.84758789 51.17724609 70.84758789 50.04296875 71.54492188 C48.47698432 72.51169077 46.91695175 73.48817271 45.36328125 74.47460938 C39.65472648 77.95002484 39.65472648 77.95002484 36.30078125 77.91015625 C35.51832031 77.59046875 34.73585938 77.27078125 33.9296875 76.94140625 C32.85332031 76.54824219 31.77695313 76.15507813 30.66796875 75.75 C29.53746094 75.29753906 28.40695313 74.84507813 27.2421875 74.37890625 C23.20120992 72.59579134 23.20120992 72.59579134 18.9296875 71.94140625 C18.9296875 82.17140625 18.9296875 92.40140625 18.9296875 102.94140625 C26.60068979 99.1059051 34.20736425 95.27157157 41.64697266 91.01513672 C42.92639116 90.29503401 44.2164942 89.59361587 45.51611328 88.91064453 C49.75501519 86.67489196 53.59057178 84.44595576 56.9296875 80.94140625 C58.02020813 76.39991964 57.77943149 72.50866991 56.9296875 67.94140625 C55.14535984 67.94140625 53.7627801 69.23569076 52.2890625 70.1640625 Z " fill="#ECAB55" transform="translate(47.0703125,10.05859375)"/>
</svg>
