<?xml version="1.0" encoding="UTF-8"?>
<svg xmlns="http://www.w3.org/2000/svg" width="128" height="128" viewBox="0 0 128 128"><path d="m3.805 0.658 0.642 -0.006c0.711 -0.004 1.422 0.001 2.133 0.007q0.772 -0.001 1.543 -0.005a603.231 603.231 0 0 1 4.244 0.006c1.525 0.005 3.051 0.002 4.576 0 2.989 -0.003 5.977 0.001 8.965 0.008 3.479 0.008 6.957 0.008 10.436 0.008 6.394 0 12.787 0.008 19.181 0.019q8.756 0.015 17.511 0.016h0.562l4.479 0.001c5.923 0.001 11.846 0.006 17.769 0.012q3.121 0.003 6.243 0.004 4.951 0.002 9.902 0.011 2.263 0.005 4.526 0.006 2.07 0 4.141 0.007 0.75 0.002 1.5 0.001c0.678 -0.001 1.357 0.002 2.035 0.005l0.592 -0.003c1.172 0.011 2.123 0.202 3.214 0.628a31835.231 31835.231 0 0 1 0.061 40.32l0.001 0.856c0.005 4.575 0.014 9.151 0.024 13.727q0.015 7.04 0.019 14.079 0.002 4.346 0.015 8.692 0.008 2.977 0.006 5.956c-0.001 1.146 0 2.292 0.006 3.439q0.008 1.573 0.002 3.147c-0.001 0.56 0.004 1.12 0.009 1.681l-0.007 1.006 0.001 0.869c-0.214 1.214 -0.949 1.866 -1.796 2.713 -0.811 0.068 -0.811 0.068 -1.872 0.066l-0.59 0.002c-0.655 0.001 -1.311 -0.002 -1.966 -0.005h-1.406c-1.275 0.001 -2.549 -0.003 -3.825 -0.007 -1.331 -0.004 -2.662 -0.004 -3.994 -0.004 -2.522 -0.002 -5.044 -0.006 -7.566 -0.012 -2.871 -0.006 -5.742 -0.009 -8.612 -0.012 -5.907 -0.006 -11.813 -0.016 -17.72 -0.028v18.523h16.864v0.553l1.659 0.829v8.57c-1.866 0.933 -1.866 0.933 -2.83 0.934l-0.664 0.006 -0.716 -0.006 -0.771 0.004c-0.851 0.003 -1.702 0.001 -2.554 -0.002q-0.916 0.002 -1.833 0.004c-1.658 0.004 -3.316 0.002 -4.974 0 -1.734 -0.002 -3.469 0 -5.204 0.001q-4.649 0.002 -9.298 -0.005 -4.214 -0.005 -8.429 0.001 -4.896 0.007 -9.792 0.004 -2.59 -0.002 -5.182 0.001 -2.435 0.004 -4.871 -0.004 -0.895 -0.002 -1.789 0.001c-0.813 0.002 -1.626 -0.001 -2.439 -0.005l-0.718 0.006c-1.286 -0.013 -2.137 -0.103 -3.181 -0.94 -0.402 -0.895 -0.308 -1.878 -0.304 -2.847l0.003 -1.01 0.007 -1.051 0.004 -1.064q0.005 -1.3 0.014 -2.599l1.659 -0.829v-0.553h16.864v-18.523H1.935v-0.553a36.492 36.492 0 0 0 -1.382 -0.829c-0.731 -0.731 -0.623 -1.06 -0.626 -2.081l-0.006 -0.99 0.001 -1.097 -0.005 -1.158c-0.004 -1.065 -0.006 -2.129 -0.006 -3.194 -0.001 -1.147 -0.005 -2.293 -0.009 -3.44 -0.008 -2.509 -0.011 -5.019 -0.013 -7.528q-0.003 -2.349 -0.006 -4.698 -0.011 -6.5 -0.014 -12.999l0 -0.841 -0.001 -0.843 -0.001 -2.538c-0.002 -4.532 -0.012 -9.064 -0.025 -13.596q-0.019 -6.974 -0.02 -13.948c-0.001 -2.612 -0.004 -5.224 -0.014 -7.835A1134.583 1134.583 0 0 1 -0.199 13.026c0.002 -1.135 0.002 -2.27 -0.006 -3.405a235.542 235.542 0 0 1 0 -3.116c0.002 -0.555 -0.005 -1.109 -0.012 -1.664l0.011 -0.996 -0.001 -0.86c0.241 -0.901 0.624 -1.339 1.371 -1.892 0.851 -0.451 1.703 -0.45 2.641 -0.433M3.041 4.147v0.276h121.918v-0.276zm0.276 0.553 -0.276 89.296h121.918l-0.553 -0.276V4.7zm121.365 0v88.743h0.276V4.7zM54.186 97.313v0.276h20.734v-0.276zm24.052 0v0.276h47.827v-0.276zm-27.646 0.553v18.523h0.276v-18.523zm3.594 0v18.523h0.276v-18.523zm0.553 0v18.523h19.629v-18.523zm19.905 0v18.523h0.276v-18.523zm3.594 0v18.523h0.276v-18.523zm-24.052 18.799v0.276h20.734v-0.276zm-19.076 3.594v0.276h58.886v-0.276zm0 0.553v2.488h0.276v-2.488zm0.553 0v2.488h58.333v-2.488zm-0.553 2.765v0.276h58.886v-0.276z" fill="#ECAB55"/><path d="m12.929 7.671 0.552 -0.003c0.61 -0.002 1.219 -0.001 1.829 0.001l1.325 -0.003c1.213 -0.003 2.427 -0.002 3.64 -0.001 1.309 0.001 2.618 -0.002 3.927 -0.004q3.846 -0.005 7.691 -0.003 3.125 0.001 6.249 -0.001l0.898 0 1.806 -0.001q8.469 -0.004 16.937 -0.001c5.168 0.002 10.336 -0.002 15.505 -0.007q7.956 -0.008 15.913 -0.007 4.468 0.001 8.937 -0.004 3.803 -0.005 7.606 -0.001 1.941 0.003 3.882 -0.001 1.776 -0.004 3.552 0.002 0.643 0.001 1.287 -0.002c0.582 -0.003 1.164 -0.001 1.746 0.003h0.98c1.214 0.147 1.902 0.576 2.733 1.458 0.39 0.677 0.438 1.075 0.437 1.852l0.005 0.774 -0.007 0.848 0.002 0.902c0.001 1.002 -0.003 2.003 -0.008 3.004v2.149q0.001 2.317 -0.007 4.633c-0.007 2.233 -0.009 4.466 -0.01 6.699q-0.003 5.433 -0.015 10.867 -0.011 5.279 -0.017 10.557l-0.001 0.657 -0.003 3.264q-0.013 13.541 -0.042 27.082c-1.351 0.651 -2.329 0.933 -3.853 0.934l-0.557 0.004c-0.614 0.003 -1.227 0 -1.841 -0.003q-0.668 0.001 -1.336 0.004c-1.222 0.004 -2.445 0.002 -3.667 -0.001 -1.319 -0.002 -2.637 0.001 -3.956 0.003 -2.583 0.004 -5.166 0.003 -7.748 0.001a4760.328 4760.328 0 0 0 -7.2 -0.001l-1.82 0.001c-5.688 0.002 -11.376 -0.001 -17.064 -0.005q-7.324 -0.005 -14.648 0.001a13800.778 13800.778 0 0 1 -18.817 0.003l-0.901 0a4945.555 4945.555 0 0 0 -6.291 0.002q-3.831 0.004 -7.662 -0.003 -1.955 -0.004 -3.911 0 -1.789 0.004 -3.578 -0.003a191.032 191.032 0 0 0 -1.296 0.002c-0.586 0.002 -1.172 0 -1.758 -0.004l-0.988 -0.001c-1.169 -0.141 -1.832 -0.609 -2.738 -1.323 -0.443 -0.582 -0.439 -0.938 -0.44 -1.665l-0.007 -0.765 0.005 -0.841 -0.004 -0.893c-0.004 -0.992 -0.002 -1.984 0 -2.976l-0.006 -2.128q-0.007 -2.594 -0.004 -5.188 0.002 -2.108 -0.001 -4.216l-0.001 -0.605 -0.001 -1.218c-0.004 -3.809 -0.002 -7.618 0.001 -11.426 0.003 -3.486 -0.001 -6.972 -0.007 -10.459q-0.01 -5.367 -0.007 -10.733 0.002 -3.014 -0.005 -6.028 -0.006 -2.834 0.002 -5.667 0.001 -1.042 -0.003 -2.084c-0.004 -0.945 -0.001 -1.891 0.004 -2.837l-0.008 -0.839c0.02 -1.834 0.02 -1.834 0.605 -2.725 1.344 -0.847 2.611 -1.03 4.178 -1.031M8.57 9.676v71.879h0.276V9.676zm3.594 1.382 0.276 0.553Zm0.553 0v0.553h103.672v-0.553zm103.948 0 0.276 0.553ZM12.164 11.888v67.456h0.276V11.888zm0.553 0v67.456h103.672V11.888zm103.948 0v67.456h0.276V11.888zM12.164 79.62v0.276h104.778v-0.276z" fill="#ECAB55"/><path d="m46.924 26.166 0.708 0.236c0.767 0.256 1.533 0.516 2.299 0.777l1.603 0.537a1478.22 1478.22 0 0 1 4.21 1.419c1.429 0.483 2.859 0.963 4.29 1.443q3.765 1.265 7.528 2.537Q68.476 33.422 69.391 33.728a1280 1280 0 0 1 -0.022 8.81c-0.008 1.364 -0.013 2.727 -0.011 4.091a382.065 382.065 0 0 1 -0.016 3.947 129.659 129.659 0 0 0 0 1.506c0.003 0.703 -0.004 1.406 -0.013 2.109l0.01 0.63c-0.014 0.582 -0.014 0.582 -0.224 1.576 -0.846 0.725 -1.704 1.189 -2.754 1.546l-0.608 0.211 -0.651 0.218 -0.698 0.241q-1.134 0.389 -2.27 0.774l-4.048 1.387c-1.943 0.669 -3.873 1.371 -5.798 2.091l-1.583 0.586a208.173 208.173 0 0 0 -2.275 0.853 168.363 168.363 0 0 1 -2.107 0.787l-0.617 0.244c-2.909 1.045 -5.801 -0.627 -8.526 -1.667q-0.623 -0.236 -1.247 -0.471 -1.635 -0.618 -3.268 -1.24 -1.648 -0.626 -3.296 -1.249 -2.428 -0.919 -4.855 -1.841l-0.545 -0.207a355.801 355.801 0 0 1 -2.61 -1.003l-0.97 -0.377 -0.851 -0.333c-0.614 -0.224 -1.207 -0.405 -1.844 -0.547l-0.276 -1.106h-0.276q-0.029 -4.034 -0.043 -8.067 -0.006 -1.873 -0.02 -3.746c-0.009 -1.205 -0.014 -2.409 -0.016 -3.614a216.19 216.19 0 0 0 -0.009 -1.38 194.35 194.35 0 0 1 -0.007 -1.93l-0.009 -0.578c0.005 -0.78 0.013 -1.294 0.477 -1.939 0.671 -0.457 1.359 -0.683 2.128 -0.942l0.524 -0.179c0.586 -0.199 1.172 -0.394 1.759 -0.589l1.254 -0.422q1.415 -0.476 2.831 -0.948a832.691 832.691 0 0 0 4.518 -1.528q2.027 -0.689 4.055 -1.373 1.008 -0.341 2.015 -0.685a579.179 579.179 0 0 1 2.861 -0.966l0.866 -0.298 0.812 -0.27 0.702 -0.238c1.859 -0.422 3.337 -0.036 5.084 0.565m-5.534 3.144 -0.539 0.18a929.728 929.728 0 0 0 -1.768 0.592l-1.225 0.409q-1.613 0.539 -3.226 1.08 -1.645 0.551 -3.291 1.101Q28.11 33.751 24.881 34.834c0.909 0.909 2.105 1.184 3.3 1.607l0.754 0.293c2.072 0.726 3.319 0.5 5.345 -0.241q0.65 -0.223 1.3 -0.443c1.546 -0.527 3.086 -1.07 4.627 -1.613l2.375 -0.835q0.761 -0.267 1.522 -0.536a129.106 129.106 0 0 1 4.839 -1.603c0.595 -0.174 0.595 -0.174 0.82 -0.775a1502.272 1502.272 0 0 0 -3.006 -0.968l-0.865 -0.28 -0.826 -0.265 -0.763 -0.245c-1.113 -0.318 -1.827 0.017 -2.912 0.381m7.042 5.299q-0.837 0.314 -1.675 0.623a189.65 189.65 0 0 0 -3.228 1.232c-1.597 0.623 -3.211 1.188 -4.838 1.725 -1.018 0.285 -1.018 0.285 -1.645 1.067a244.112 244.112 0 0 0 2.782 0.985l0.79 0.287 0.775 0.267 0.706 0.25c2.154 0.419 4.316 -0.625 6.324 -1.306l1.052 -0.352c0.917 -0.307 1.834 -0.616 2.75 -0.926 0.937 -0.316 1.875 -0.631 2.813 -0.945q2.754 -0.924 5.507 -1.854l-0.276 -0.553 0.829 -0.553c-4.817 -2.22 -7.838 -1.89 -12.665 0.052M21.287 37.875v15.482h0.276v-15.482zm0.553 0.276 0.002 0.584q0.008 2.721 0.012 5.443 0.002 1.399 0.006 2.798 0.005 1.608 0.006 3.216l0.004 1.017v0.939l0.002 0.83C21.84 53.633 21.84 53.633 21.564 54.186q3.592 1.365 7.188 2.718 1.67 0.628 3.338 1.262 1.609 0.612 3.221 1.215a251.577 251.577 0 0 1 1.229 0.466c0.573 0.219 1.147 0.433 1.722 0.648l0.99 0.374c0.814 0.223 1.172 0.262 1.942 -0.047l-0.002 -0.615q-0.008 -2.868 -0.012 -5.736 -0.002 -1.475 -0.006 -2.949a1629.443 1629.443 0 0 1 -0.006 -3.388l-0.004 -1.073v-0.989l-0.002 -0.874C41.192 44.51 41.192 44.51 41.469 43.957a5798.428 5798.428 0 0 0 -7.094 -2.379 2516.043 2516.043 0 0 1 -3.294 -1.105q-1.589 -0.534 -3.178 -1.065 -0.607 -0.203 -1.213 -0.407 -0.848 -0.285 -1.697 -0.568l-0.977 -0.328c-0.86 -0.251 -1.36 -0.361 -2.175 0.046m40.19 0.25 -0.54 0.18c-0.586 0.196 -1.17 0.396 -1.755 0.597q-0.61 0.206 -1.221 0.41c-1.069 0.359 -2.138 0.723 -3.205 1.086 -1.091 0.371 -2.183 0.739 -3.275 1.106A2116.285 2116.285 0 0 0 45.616 43.957l0.276 0.553c0.025 0.52 0.033 1.04 0.032 1.56v0.99l-0.004 1.072 -0.001 1.095q-0.002 1.441 -0.007 2.882 -0.004 1.47 -0.006 2.941 -0.004 2.886 -0.014 5.771c0.959 0.243 1.564 0.308 2.495 -0.033l0.637 -0.228 0.682 -0.255 0.719 -0.26c0.771 -0.28 1.54 -0.564 2.309 -0.848q0.79 -0.288 1.58 -0.574a1025.935 1025.935 0 0 0 3.127 -1.142 784.311 784.311 0 0 1 5.626 -2.033q1.365 -0.492 2.73 -0.985l-0.553 -0.276v-16.035c-1.448 -0.29 -1.866 -0.206 -3.214 0.25M65.521 37.875v16.035h0.276v-16.035zm-24.052 6.911v16.311l-0.553 0.276 0.829 0.276v-16.864zm3.87 0v16.311h0.276v-16.311zm31.741 -20.01 0.83 -0.007 0.91 0.005 0.959 -0.004c1.049 -0.004 2.098 -0.001 3.148 0.002q1.091 -0.001 2.183 -0.003 2.289 -0.002 4.579 0.005c1.764 0.004 3.528 0.003 5.292 -0.002 1.697 -0.004 3.394 -0.004 5.091 -0.001q1.083 0.001 2.166 -0.002c1.009 -0.002 2.017 0.001 3.026 0.006l0.908 -0.005 0.833 0.007 0.723 0.001c0.777 0.126 1.154 0.433 1.749 0.934h0.276q0.051 2.457 0.076 4.915 0.011 0.836 0.028 1.673c0.017 0.801 0.025 1.601 0.031 2.402l0.022 0.757 0.001 0.704 0.009 0.619C109.754 37.322 109.754 37.322 109.249 37.803c-1.329 0.528 -2.598 0.464 -4.016 0.456l-0.961 0.004c-1.048 0.004 -2.095 0.001 -3.143 -0.002q-1.091 0.001 -2.182 0.003 -2.286 0.002 -4.572 -0.005a1025.935 1025.935 0 0 0 -5.286 0.002c-1.696 0.004 -3.392 0.004 -5.088 0.001q-1.082 -0.001 -2.165 0.002c-1.007 0.002 -2.013 -0.001 -3.02 -0.006l-0.909 0.005 -0.829 -0.007 -0.721 -0.001c-0.741 -0.127 -0.985 -0.344 -1.437 -0.934 -0.105 -0.535 -0.105 -0.535 -0.107 -1.147l-0.008 -0.696 0.005 -0.749 -0.003 -0.771q-0.001 -0.807 0.005 -1.615c0.004 -0.825 0 -1.649 -0.006 -2.474q0.001 -0.784 0.004 -1.568l-0.005 -0.749 0.008 -0.696 0.002 -0.612c0.25 -1.268 1.095 -1.468 2.266 -1.47M78.238 28.199v0.276h27.646v-0.276zm0 0.553v5.529h0.276v-5.529zm0.553 0v5.529h26.54v-5.529zm26.816 0v5.529h0.276v-5.529zm-27.369 5.806v0.276h27.646v-0.276zm-1.054 7.149 0.735 -0.005 0.809 -0.001 0.85 -0.004q1.397 -0.006 2.794 -0.007l1.938 -0.005q2.035 -0.004 4.069 -0.006c1.738 -0.002 3.475 -0.008 5.213 -0.016 1.335 -0.005 2.671 -0.007 4.006 -0.007q0.961 -0.001 1.922 -0.007c0.897 -0.005 1.793 -0.004 2.69 -0.002l0.802 -0.008c1.449 0.009 2.437 0.143 3.701 0.936 0.101 1.513 0.101 1.513 -0.346 2.16 -0.87 0.591 -1.762 0.639 -2.792 0.642l-0.724 0.004 -0.787 -0.001 -0.834 0.003q-1.366 0.004 -2.731 0.004l-1.899 0.003q-1.99 0.002 -3.981 0.002c-1.7 0 -3.4 0.004 -5.1 0.009q-1.961 0.004 -3.922 0.004 -0.94 0 -1.88 0.004c-0.877 0.003 -1.754 0.002 -2.63 0 -0.259 0.002 -0.517 0.003 -0.783 0.005 -1.32 -0.006 -2.436 -0.066 -3.66 -0.625 -0.374 -0.749 -0.294 -1.385 -0.276 -2.212 1.728 -0.864 1.728 -0.864 2.816 -0.868M74.644 42.851v1.382h0.276v-1.382zm31.516 0v1.382h0.276v-1.382zm-27.763 12.891 0.803 -0.003c0.874 -0.002 1.749 0.001 2.623 0.006l1.825 -0.001q1.912 0 3.823 0.008c1.633 0.006 3.267 0.006 4.9 0.004q1.884 -0.001 3.768 0.004 0.903 0.002 1.807 0.001 1.263 0.001 2.525 0.008l0.754 -0.002c1.215 0.01 2.171 0.06 3.276 0.631v2.212c-0.796 0.452 -1.368 0.622 -2.281 0.625l-0.705 0.006 -0.766 -0.002 -0.812 0.004c-0.886 0.004 -1.772 0.004 -2.659 0.003l-1.847 0.004q-1.935 0.003 -3.871 0.001c-1.655 -0.002 -3.309 0.003 -4.964 0.009 -1.271 0.004 -2.542 0.004 -3.813 0.004q-0.915 0 -1.831 0.004c-0.852 0.004 -1.705 0.002 -2.557 -0.002l-0.766 0.006c-2.072 -0.017 -2.072 -0.017 -2.986 -0.939h-0.276c-0.087 -0.778 -0.087 -0.778 0 -1.659 1.213 -1.058 2.507 -0.945 4.03 -0.932m-0.505 -6.853 0.65 -0.004q1.062 -0.006 2.124 -0.007l1.477 -0.005q1.547 -0.004 3.094 -0.006a828.268 828.268 0 0 0 3.968 -0.016c1.016 -0.005 2.033 -0.007 3.049 -0.007a256.276 256.276 0 0 0 1.463 -0.007 213.978 213.978 0 0 1 2.043 -0.002l0.612 -0.008c0.795 0.006 1.357 0.014 2.029 0.463 0.469 0.752 0.489 1.539 0.571 2.407 -1.167 0.567 -2.219 0.633 -3.492 0.629l-0.63 0.004c-0.685 0.004 -1.369 0.004 -2.054 0.003l-1.433 0.004q-1.5 0.003 -3 0.001c-1.28 -0.002 -2.559 0.003 -3.838 0.009 -0.986 0.004 -1.972 0.004 -2.958 0.004q-0.707 0 -1.415 0.004c-0.66 0.004 -1.32 0.002 -1.981 -0.002l-0.586 0.006c-1.27 -0.014 -2.127 -0.298 -3.218 -0.939 -0.035 -1.59 -0.035 -1.59 0.276 -2.212 1.034 -0.403 2.156 -0.319 3.248 -0.321M74.644 49.762v1.382h0.276v-1.382zm3.696 12.886 1.04 -0.008 1.113 0.005q0.576 -0.001 1.153 -0.003 1.205 -0.001 2.409 0.005c1.026 0.005 2.052 0.002 3.079 -0.003 0.793 -0.003 1.585 -0.002 2.378 0q0.568 0.001 1.135 -0.002c0.53 -0.002 1.06 0.002 1.589 0.006l0.911 0.002c0.978 0.121 1.656 0.451 2.508 0.935l-0.155 0.501c-0.182 0.65 -0.182 0.65 0.155 1.434 -1.859 1.039 -3.654 0.949 -5.745 0.939q-0.556 0.001 -1.112 0.003 -1.161 0.001 -2.323 -0.005a311.568 311.568 0 0 0 -2.964 0.003c-0.765 0.003 -1.529 0.002 -2.294 0 -0.54 -0.001 -1.08 0.002 -1.62 0.004 -1.767 -0.014 -3.12 -0.075 -4.676 -0.945l0.156 -0.501c0.182 -0.65 0.182 -0.65 -0.156 -1.434 1.194 -0.677 2.05 -0.934 3.42 -0.937M1.659 0.276h124.683v0.276H1.659zm63.862 85.149c0.933 0.398 0.933 0.398 1.659 0.829l0.553 0.276c0.114 0.813 0.114 0.813 0.173 1.814l0.063 1.003L68.009 90.125l-0.651 0.384c-0.732 0.429 -0.732 0.429 -1.371 0.929 -1.285 0.598 -2.44 0.2 -3.767 -0.138C61.65 90.955 61.65 90.955 61.443 90.402l-0.069 -0.829 -0.155 -1.469q-0.062 -0.648 -0.121 -1.296c1.518 -1.13 2.519 -1.628 4.423 -1.382m-4.147 1.659 0.276 0.553ZM10.505 83.49h108.095v0.276H10.505zm0.553 -76.302h106.989v0.276H11.058zm109.477 2.488h0.276v71.603h-0.276zM33.451 127.447h62.203v0.276H33.451zm42.298 -89.019h32.622v0.276H75.749zm0 -14.099h32.622v0.276H75.749zm0.276 16.864h29.028v0.276H76.026zm0.276 4.423h28.475v0.276H76.302zm-0.553 13.823h27.646v0.276H75.749zm0 -4.147h27.369v0.276h-27.369z" fill="#ECAB55"/><path d="M75.749 48.38h22.117v0.276h-22.117z" fill="#ECAB55"/><path d="M69.391 34.281h0.276v22.117h-0.276z" fill="#ECAB55"/><path d="M76.026 52.527h21.564v0.276h-21.564z" fill="#ECAB55"/><path d="M76.579 62.203h17.417v0.276h-17.417z" fill="#ECAB55"/><path d="M76.855 66.626h16.864v0.276h-16.864z" fill="#ECAB55"/><path d="M74.367 25.711h0.276v11.611h-0.276z" fill="#ECAB55"/><path d="M89.296 51.421h3.317l0.276 0.829h-3.87z" fill="#ECAB55"/><path d="M84.873 51.421h3.317l0.276 0.829h-3.87z" fill="#ECAB55"/><path d="M80.449 51.421h3.317l0.276 0.829h-3.87zm13.27 0h2.765l0.276 0.829h-3.317z" fill="#ECAB55"/><path d="M31.24 118.877h0.276v6.359h-0.276z" fill="#ECAB55"/><path d="M97.59 118.877h0.276v6.359h-0.276z" fill="#ECAB55"/><path d="M63.309 84.873h2.212v0.276h-2.212z" fill="#ECAB55"/><path d="m25.711 34.834 1.659 0.276c-0.518 0.173 -0.518 0.173 -1.106 0.276z" fill="#ECAB55"/><path d="M60.821 87.637h0.276v1.935h-0.276z" fill="#ECAB55"/><path d="m42.298 65.797 1.659 0.276c-0.518 0.173 -0.518 0.173 -1.106 0.276z" fill="#ECAB55"/><path d="M38.151 38.704h0.829v0.553l-1.106 -0.276z" fill="#ECAB55"/><path d="M42.575 24.881h1.935v0.276h-1.935z" fill="#ECAB55"/><path d="M68.009 87.637h0.276v1.659h-0.276z" fill="#ECAB55"/><path d="m55.568 61.65 0.829 0.276 -1.382 0.276z" fill="#ECAB55"/><path d="M47.827 30.687h0.829v0.553h-0.829z" fill="#ECAB55"/><path d="M63.862 92.06h1.382v0.276h-1.382z" fill="#ECAB55"/><path d="M98.972 49.762h0.276v1.382h-0.276z" fill="#ECAB55"/><path d="m119.43 8.294 0.829 0.276 -0.276 0.553z" fill="#ECAB55"/><path d="m104.501 56.95 0.276 1.106Z" fill="#ECAB55"/><path d="m19.076 32.622 1.106 0.276Z" fill="#ECAB55"/><path d="M0.276 1.106v0.829Z" fill="#48158A"/><path d="m1.106 97.313 0.829 0.276Z" fill="#ECAB55"/><path d="m65.244 91.784 0.829 0.276Z" fill="#ECAB55"/><path d="m63.032 91.784 0.829 0.276Z" fill="#ECAB55"/><path d="m67.179 90.402 0.276 0.553 -0.553 -0.276z" fill="#ECAB55"/><path d="m93.719 66.35 0.829 0.276Z" fill="#ECAB55"/><path d="m76.026 66.35 0.829 0.276Z" fill="#ECAB55"/><path d="m43.957 65.797 0.829 0.276Z" fill="#ECAB55"/><path d="m44.786 65.521 0.829 0.276Z" fill="#ECAB55"/><path d="m41.469 65.521 0.829 0.276Z" fill="#ECAB55"/><path d="m40.086 64.968 0.829 0.276Z" fill="#ECAB55"/><path d="m46.998 64.691 0.829 0.276Z" fill="#ECAB55"/><path d="m39.257 64.691 0.829 0.276Z" fill="#ECAB55"/><path d="m47.827 64.415 0.829 0.276Z" fill="#ECAB55"/><path d="m48.657 64.138 0.829 0.276Z" fill="#ECAB55"/><path d="m37.875 64.138 0.829 0.276Z" fill="#ECAB55"/><path d="m49.486 63.862 0.829 0.276Z" fill="#ECAB55"/><path d="m37.045 63.862 0.829 0.276Z" fill="#ECAB55"/><path d="m50.315 63.585 0.829 0.276Z" fill="#411975"/><path d="m35.663 63.309 0.829 0.276Z" fill="#451C7C"/><path d="m51.698 63.032 0.829 0.276Z" fill="#4F1489"/><path d="m34.834 63.032 0.829 0.276Z" fill="#421A86"/><path d="m52.527 62.756 0.829 0.276Z" fill="#48187A"/><path d="m53.356 62.479 0.829 0.276Z" fill="#471587"/><path d="m33.451 62.479 0.829 0.276Z" fill="#4C1487"/><path d="m54.186 62.203 0.829 0.276Z" fill="#451A70"/><path d="m32.622 62.203 0.829 0.276Z" fill="#491879"/><path d="m31.24 61.65 0.829 0.276Z" fill="#421B67"/><path d="m56.397 61.374 0.829 0.276Z" fill="#451E68"/><path d="m30.41 61.374 0.829 0.276Z" fill="#45177A"/><path d="m57.227 61.097 0.829 0.276Z" fill="#461672"/><path d="m58.056 60.821 0.829 0.276Z" fill="#451787"/><path d="m29.028 60.821 0.829 0.276Z" fill="#48158C"/><path d="m58.886 60.544 0.829 0.276Z" fill="#461881"/><path d="m40.086 60.544 0.829 0.276Z" fill="#4D148E"/><path d="m28.199 60.544 0.829 0.276Z" fill="#461A79"/><path d="m60.268 59.991 0.829 0.276Z" fill="#441B79"/><path d="m47.827 59.991 0.829 0.276Z" fill="#411376"/><path d="m38.704 59.991 0.829 0.276Z" fill="#491975"/><path d="m26.816 59.991 0.829 0.276Z" fill="#461A79"/><path d="m61.097 59.715 0.829 0.276Z" fill="#360C70"/><path d="m48.657 59.715 0.829 0.276Z" fill="#40146F"/><path d="m37.875 59.715 0.829 0.276Z" fill="#491973"/><path d="m25.987 59.715 0.829 0.276Z" fill="#441980"/><path d="m61.927 59.438 0.829 0.276Z" fill="#3B0C66"/><path d="m49.486 59.438 0.829 0.276Z" fill="#451685"/><path d="m62.756 59.162 0.829 0.276Z" fill="#3B126D"/><path d="m50.315 59.162 0.829 0.276Z" fill="#4A197D"/><path d="m36.492 59.162 0.829 0.276Z" fill="#49187B"/><path d="m24.605 59.162 0.829 0.276Z" fill="#441D71"/><path d="m35.663 58.886 0.829 0.276Z" fill="#48138A"/><path d="m23.775 58.886 0.829 0.276Z" fill="#481880"/><path d="m51.698 58.609 0.829 0.276Z" fill="#461975"/><path d="m64.968 58.333 0.829 0.276Z" fill="#4A177B"/><path d="m52.527 58.333 0.829 0.276Z" fill="#441783"/><path d="m22.393 58.333 0.829 0.276Z" fill="#471974"/><path d="m65.797 58.056 0.829 0.276Z" fill="#481685"/><path d="m53.356 58.056 0.829 0.276Z" fill="#3D1275"/><path d="m33.451 58.056 0.829 0.276Z" fill="#431172"/><path d="m21.564 58.056 0.829 0.276Z" fill="#45177D"/><path d="m66.626 57.78 0.829 0.276Z" fill="#461A77"/><path d="m54.186 57.78 0.829 0.276Z" fill="#36105D"/><path d="m67.456 57.503 0.829 0.276Z" fill="#441877"/><path d="m55.015 57.503 0.829 0.276Z" fill="#3C1660"/><path d="m32.069 57.503 0.829 0.276Z" fill="#431E6C"/><path d="m20.181 57.503 0.829 0.276Z" fill="#451876"/><path d="m31.24 57.227 0.829 0.276Z" fill="#481781"/><path d="m19.352 57.227 0.829 0.276Z" fill="#3D0C6C"/><path d="m56.397 56.95 0.829 0.276Z" fill="#461774"/><path d="m57.227 56.674 0.829 0.276Z" fill="#481387"/><path d="m29.857 56.674 0.829 0.276Z" fill="#4D1389"/><path d="m58.056 56.397 0.829 0.276Z" fill="#48187A"/><path d="m29.028 56.397 0.829 0.276Z" fill="#48177F"/><path d="m58.886 56.121 0.829 0.276Z" fill="#4E118E"/><path d="m26.816 55.568 0.829 0.276Z" fill="#3E1078"/><path d="m61.097 55.292 0.829 0.276Z" fill="#3A0D6A"/><path d="m61.927 55.015 0.829 0.276Z" fill="#3F136B"/><path d="m25.434 55.015 0.829 0.276Z" fill="#40146B"/><path d="m62.756 54.739 0.829 0.276Z" fill="#451E6B"/><path d="m24.605 54.739 0.829 0.276Z" fill="#431C72"/><path d="m63.585 54.462 0.829 0.276Z" fill="#461880"/><path d="m22.393 53.909 0.829 0.276Z" fill="#4A1387"/><path d="m104.778 45.339 0.829 0.276Z" fill="#48167A"/><path d="m46.445 43.957 0.829 0.276Z" fill="#310B64"/><path d="m39.81 43.957 0.829 0.276Z" fill="#3C1774"/><path d="m47.274 43.68 0.829 0.276Z" fill="#360D6B"/><path d="m38.981 43.68 0.829 0.276Z" fill="#4C1687"/><path d="m48.104 43.404 0.829 0.276Z" fill="#411673"/><path d="m38.151 43.404 0.829 0.276Z" fill="#4B187C"/><path d="m48.933 43.127 0.829 0.276Z" fill="#4A1682"/><path d="m37.322 43.127 0.829 0.276Z" fill="#4D158A"/><path d="m49.762 42.851 0.829 0.276Z" fill="#461A77"/><path d="m36.492 42.851 0.829 0.276Z" fill="#4B187C"/><path d="m50.592 42.575 0.829 0.276Z" fill="#4B1488"/><path d="m35.663 42.575 0.829 0.276Z" fill="#4D1590"/><path d="m51.421 42.298 0.829 0.276Z" fill="#451B75"/><path d="m34.834 42.298 0.829 0.276Z" fill="#4A1D7B"/><path d="m52.251 42.022 0.829 0.276Z" fill="#370C6D"/><path d="m34.004 42.022 0.829 0.276Z" fill="#491788"/><path d="m53.08 41.745 0.829 0.276Z" fill="#380D67"/><path d="m33.175 41.745 0.829 0.276Z" fill="#461677"/><path d="m53.909 41.469 0.829 0.276Z" fill="#3E1170"/><path d="m32.346 41.469 0.829 0.276Z" fill="#43126E"/><path d="m54.739 41.192 0.829 0.276Z" fill="#4C177B"/><path d="m31.516 41.192 0.829 0.276Z" fill="#4A197C"/><path d="m55.568 40.916 0.829 0.276Z" fill="#4C138B"/><path d="m30.687 40.916 0.829 0.276Z" fill="#48158F"/><path d="m56.397 40.639 0.829 0.276Z" fill="#471B73"/><path d="m43.127 40.639 0.829 0.276Z" fill="#4D138A"/><path d="m29.857 40.639 0.829 0.276Z" fill="#49177D"/><path d="m57.227 40.363 0.829 0.276Z" fill="#44187E"/><path d="m43.957 40.363 0.829 0.276Z" fill="#461974"/><path d="m29.028 40.363 0.829 0.276Z" fill="#4E1385"/><path d="m58.056 40.086 0.829 0.276Z" fill="#441C69"/><path d="m44.786 40.086 0.829 0.276Z" fill="#3A1170"/><path d="m28.199 40.086 0.829 0.276Z" fill="#441B79"/><path d="m58.886 39.81 0.829 0.276Z" fill="#411372"/><path d="m45.616 39.81 0.829 0.276Z" fill="#380869"/><path d="m40.639 39.81 0.829 0.276Z" fill="#491A7E"/><path d="m27.369 39.81 0.829 0.276Z" fill="#441986"/><path d="m59.715 39.533 0.829 0.276Z" fill="#3C075F"/><path d="m46.445 39.533 0.829 0.276Z" fill="#3F126C"/><path d="m39.81 39.533 0.829 0.276Z" fill="#4A148D"/><path d="m26.54 39.533 0.829 0.276Z" fill="#411476"/><path d="m60.544 39.257 0.829 0.276Z" fill="#371058"/><path d="m47.274 39.257 0.829 0.276Z" fill="#43196B"/><path d="m38.981 39.257 0.829 0.276Z" fill="#4D147C"/><path d="m25.711 39.257 0.829 0.276Z" fill="#4E168B"/><path d="m61.374 38.981 0.829 0.276Z" fill="#411479"/><path d="m48.104 38.981 0.829 0.276Z" fill="#4A1C81"/><path d="m24.881 38.981 0.829 0.276Z" fill="#491C7E"/><path d="m62.203 38.704 0.829 0.276Z" fill="#48148D"/><path d="m48.933 38.704 0.829 0.276Z" fill="#44196F"/><path d="m24.052 38.704 0.829 0.276Z" fill="#4E1390"/><path d="m63.032 38.428 0.829 0.276Z" fill="#441C73"/><path d="m49.762 38.428 0.829 0.276Z" fill="#491084"/><path d="m38.981 38.428 0.829 0.276Z" fill="#48187F"/><path d="m23.222 38.428 0.829 0.276Z" fill="#4F167F"/><path d="m63.862 38.151 0.829 0.276Z" fill="#471783"/><path d="m50.592 38.151 0.829 0.276Z" fill="#431673"/><path d="m39.81 38.151 0.829 0.276Z" fill="#4D1096"/><path d="m22.393 38.151 0.829 0.276Z" fill="#4E148D"/><path d="m51.421 37.875 0.829 0.276Z" fill="#381570"/><path d="m40.639 37.875 0.829 0.276Z" fill="#44197F"/><path d="m52.251 37.598 0.829 0.276Z" fill="#370D69"/><path d="m41.469 37.598 0.829 0.276Z" fill="#4A148A"/><path d="m53.08 37.322 0.829 0.276Z" fill="#3B1067"/><path d="m53.909 37.045 0.829 0.276Z" fill="#421A67"/><path d="m42.851 37.045 0.829 0.276Z" fill="#4C1687"/><path d="m54.739 36.769 0.829 0.276Z" fill="#421C7C"/><path d="m43.68 36.769 0.829 0.276Z" fill="#471A7F"/><path d="m55.568 36.492 0.829 0.276Z" fill="#411871"/><path d="m44.51 36.492 0.829 0.276Z" fill="#4C158E"/><path d="m31.793 36.492 0.829 0.276Z" fill="#4F1B7A"/><path d="m56.397 36.216 0.829 0.276Z" fill="#4D0E89"/><path d="m45.339 36.216 0.829 0.276Z" fill="#4A1A75"/><path d="m57.227 35.94 0.829 0.276Z" fill="#431977"/><path d="m46.168 35.94 0.829 0.276Z" fill="#491982"/><path d="m58.056 35.663 0.829 0.276Z" fill="#451586"/><path d="m46.998 35.663 0.829 0.276Z" fill="#441F68"/><path d="m34.004 35.663 0.829 0.276Z" fill="#360C75"/><path d="m58.886 35.387 0.829 0.276Z" fill="#481774"/><path d="m47.827 35.387 0.829 0.276Z" fill="#370F61"/><path d="m34.834 35.387 0.829 0.276Z" fill="#3A0F73"/><path d="m48.657 35.11 0.829 0.276Z" fill="#390A6A"/><path d="m35.663 35.11 0.829 0.276Z" fill="#3F1670"/><path d="m49.486 34.834 0.829 0.276Z" fill="#350C6D"/><path d="m36.492 34.834 0.829 0.276Z" fill="#441B6F"/><path d="m59.438 34.557 0.829 0.276Z" fill="#471581"/><path d="m50.315 34.557 0.829 0.276Z" fill="#3B1271"/><path d="m37.322 34.557 0.829 0.276Z" fill="#411980"/><path d="m58.609 34.281 0.829 0.276Z" fill="#481380"/><path d="m51.145 34.281 0.829 0.276Z" fill="#471481"/><path d="m38.151 34.281 0.829 0.276Z" fill="#441976"/><path d="m57.78 34.004 0.829 0.276Z" fill="#461975"/><path d="m51.974 34.004 0.829 0.276Z" fill="#421974"/><path d="m38.981 34.004 0.829 0.276Z" fill="#4D118C"/><path d="m56.95 33.728 0.829 0.276Z" fill="#461B87"/><path d="m52.803 33.728 0.829 0.276Z" fill="#461A83"/><path d="m39.81 33.728 0.829 0.276Z" fill="#4B177B"/><path d="m56.121 33.451 0.829 0.276Z" fill="#43167A"/><path d="m53.633 33.451 0.829 0.276Z" fill="#431675"/><path d="m40.639 33.451 0.829 0.276Z" fill="#3D0F75"/><path d="m30.134 33.451 0.829 0.276Z" fill="#461972"/><path d="m55.292 33.175 0.829 0.276Z" fill="#491086"/><path d="m41.469 33.175 0.829 0.276Z" fill="#3D0E6D"/><path d="m30.963 33.175 0.829 0.276Z" fill="#4B1485"/><path d="m67.732 32.898 0.829 0.276Z" fill="#431570"/><path d="m42.298 32.898 0.829 0.276Z" fill="#461775"/><path d="m31.793 32.898 0.829 0.276Z" fill="#461E70"/><path d="m66.903 32.622 0.829 0.276Z" fill="#461E6D"/><path d="m43.127 32.622 0.829 0.276Z" fill="#481977"/><path d="m66.073 32.346 0.829 0.276Z" fill="#471A80"/><path d="m43.957 32.346 0.829 0.276Z" fill="#471886"/><path d="m20.181 32.346 0.829 0.276Z" fill="#4C1585"/><path d="m65.244 32.069 0.829 0.276Z" fill="#481D77"/><path d="m44.786 32.069 0.829 0.276Z" fill="#4D1F7F"/><path d="m21.011 32.069 0.829 0.276Z" fill="#451B7C"/><path d="m64.415 31.793 0.829 0.276Z" fill="#4C128C"/><path d="m21.84 31.793 0.829 0.276Z" fill="#44178A"/><path d="m63.585 31.516 0.829 0.276Z" fill="#441275"/><path d="m46.168 31.516 0.829 0.276Z" fill="#47197A"/><path d="m35.94 31.516 0.829 0.276Z" fill="#4B138C"/><path d="m22.67 31.516 0.829 0.276Z" fill="#3F156D"/><path d="m62.756 31.24 0.829 0.276Z" fill="#34106C"/><path d="m46.998 31.24 0.829 0.276Z" fill="#461686"/><path d="m36.769 31.24 0.829 0.276Z" fill="#481977"/><path d="m23.499 31.24 0.829 0.276Z" fill="#38105C"/><path d="m61.927 30.963 0.829 0.276Z" fill="#2E085A"/><path d="m37.598 30.963 0.829 0.276Z" fill="#4B1586"/><path d="m24.328 30.963 0.829 0.276Z" fill="#491B75"/><path d="m61.097 30.687 0.829 0.276Z" fill="#491683"/><path d="m38.428 30.687 0.829 0.276Z" fill="#481C70"/><path d="m25.158 30.687 0.829 0.276Z" fill="#451883"/><path d="m60.268 30.41 0.829 0.276Z" fill="#481A71"/><path d="m46.998 30.41 0.829 0.276Z" fill="#491684"/><path d="m39.257 30.41 0.829 0.276Z" fill="#421A6D"/><path d="m25.987 30.41 0.829 0.276Z" fill="#451B76"/><path d="m59.438 30.134 0.829 0.276Z" fill="#4A1683"/><path d="m46.168 30.134 0.829 0.276Z" fill="#471875"/><path d="m26.816 30.134 0.829 0.276Z" fill="#4E1483"/><path d="m58.609 29.857 0.829 0.276Z" fill="#461A73"/><path d="m45.339 29.857 0.829 0.276Z" fill="#47127F"/><path d="m27.646 29.857 0.829 0.276Z" fill="#471881"/><path d="m57.78 29.581 0.829 0.276Z" fill="#4C1485"/><path d="m44.51 29.581 0.829 0.276Z" fill="#46197A"/><path d="m28.475 29.581 0.829 0.276Z" fill="#471689"/><path d="m56.95 29.305 0.829 0.276Z" fill="#471B75"/><path d="m43.68 29.305 0.829 0.276Z" fill="#4D1488"/><path d="m29.305 29.305 0.829 0.276Z" fill="#48197A"/><path d="m56.121 29.028 0.829 0.276Z" fill="#3B1373"/><path d="m30.134 29.028 0.829 0.276Z" fill="#431176"/><path d="m55.292 28.752 0.829 0.276Z" fill="#3A0B69"/><path d="m30.963 28.752 0.829 0.276Z" fill="#42146F"/><path d="m54.462 28.475 0.829 0.276Z" fill="#41166F"/><path d="m31.793 28.475 0.829 0.276Z" fill="#471887"/><path d="m53.633 28.199 0.829 0.276Z" fill="#461D6F"/><path d="m32.622 28.199 0.829 0.276Z" fill="#49197E"/><path d="m52.803 27.922 0.829 0.276Z" fill="#471A80"/><path d="m33.451 27.922 0.829 0.276Z" fill="#501485"/><path d="m51.974 27.646 0.829 0.276Z" fill="#491D77"/><path d="m34.281 27.646 0.829 0.276Z" fill="#491B7D"/><path d="m51.145 27.369 0.829 0.276Z" fill="#4B138B"/><path d="m35.11 27.369 0.829 0.276Z" fill="#46178B"/><path d="m50.315 27.093 0.829 0.276Z" fill="#3F1473"/><path d="m35.94 27.093 0.829 0.276Z" fill="#3F156D"/><path d="m49.486 26.816 0.829 0.276Z" fill="#34106B"/><path d="m36.769 26.816 0.829 0.276Z" fill="#38105C"/><path d="m48.657 26.54 0.829 0.276Z" fill="#300859"/><path d="m37.598 26.54 0.829 0.276Z" fill="#491B74"/><path d="m47.827 26.263 0.829 0.276Z" fill="#4A1787"/><path d="m38.428 26.263 0.829 0.276Z" fill="#451884"/><path d="m46.998 25.987 0.829 0.276Z" fill="#49197C"/><path d="m39.257 25.987 0.829 0.276Z" fill="#451A7D"/><path d="m46.168 25.711 0.829 0.276Z" fill="#4B1686"/><path d="m40.086 25.711 0.829 0.276Z" fill="#4F1585"/><path d="m45.339 25.434 0.829 0.276Z" fill="#471C77"/><path d="m40.916 25.434 0.829 0.276Z" fill="#461B7A"/><path d="m44.51 25.158 0.829 0.276Z" fill="#4D1487"/><path d="m41.745 25.158 0.829 0.276Z" fill="#48188C"/><path d="m118.048 7.464 0.829 0.276Z" fill="#431B86"/><path d="m95.654 127.171 0.553 0.276Z" fill="#461679"/><path d="m32.898 127.171 0.553 0.276Z" fill="#4E118C"/><path d="m95.654 116.665 0.553 0.276Z" fill="#481578"/><path d="m32.898 116.665 0.553 0.276Z" fill="#461A7D"/><path d="m62.203 91.231 0.553 0.276Z" fill="#4D148F"/><path d="m66.073 85.425 0.553 0.276Z" fill="#4E1094"/><path d="m62.756 85.149 0.553 0.276Z" fill="#431683"/><path d="m118.6 83.214 0.553 0.276Z" fill="#3F1975"/><path d="m9.952 83.214 0.553 0.276Z" fill="#471877"/><path d="m45.616 65.244 0.553 0.276Z" fill="#48158C"/><path d="m40.916 65.244 0.553 0.276Z" fill="#4A1681"/><path d="m46.445 64.968 0.553 0.276Z" fill="#4C167B"/><path d="m38.704 64.415 0.553 0.276Z" fill="#431A6F"/><path d="m36.492 63.585 0.553 0.276Z" fill="#3D1368"/><path d="m51.145 63.309 0.553 0.276Z" fill="#49197D"/><path d="m34.281 62.756 0.553 0.276Z" fill="#441A7C"/><path d="m93.996 62.479 0.553 0.276Z" fill="#3C156E"/><path d="m76.026 62.479 0.553 0.276Z" fill="#391577"/><path d="m32.069 61.927 0.553 0.276Z" fill="#4B1781"/><path d="m29.857 61.097 0.553 0.276Z" fill="#461A75"/><path d="m46.445 60.544 0.553 0.276Z" fill="#491B77"/><path d="m59.715 60.268 0.553 0.276Z" fill="#471785"/><path d="m47.274 60.268 0.553 0.276Z" fill="#491A7C"/><path d="m39.533 60.268 0.553 0.276Z" fill="#461982"/><path d="m27.646 60.268 0.553 0.276Z" fill="#45197E"/><path d="m37.322 59.438 0.553 0.276Z" fill="#4A148B"/><path d="m25.434 59.438 0.553 0.276Z" fill="#421E6F"/><path d="m63.585 58.886 0.553 0.276Z" fill="#47197B"/><path d="m51.145 58.886 0.553 0.276Z" fill="#4E1383"/><path d="m64.415 58.609 0.553 0.276Z" fill="#4F1191"/><path d="m35.11 58.609 0.553 0.276Z" fill="#471979"/><path d="m23.222 58.609 0.553 0.276Z" fill="#48158C"/><path d="m34.281 58.333 0.553 0.276Z" fill="#4B1382"/><path d="m32.898 57.78 0.553 0.276Z" fill="#3C1472"/><path d="m21.011 57.78 0.553 0.276Z" fill="#451B6F"/><path d="m55.844 57.227 0.553 0.276Z" fill="#45157F"/><path d="m30.687 56.95 0.553 0.276Z" fill="#4A177D"/><path d="m18.799 56.95 0.553 0.276Z" fill="#370C6C"/><path d="m18.246 56.674 0.553 0.276Z" fill="#401273"/><path d="m28.475 56.121 0.553 0.276Z" fill="#431887"/><path d="m59.715 55.844 0.553 0.276Z" fill="#471979"/><path d="m27.646 55.844 0.553 0.276Z" fill="#431B7A"/><path d="m103.119 55.568 0.553 0.276Z" fill="#391264"/><path d="m60.544 55.568 0.553 0.276Z" fill="#381273"/><path d="m26.263 55.292 0.553 0.276Z" fill="#47117A"/><path d="m24.052 54.462 0.553 0.276Z" fill="#461886"/><path d="m64.415 54.186 0.553 0.276Z" fill="#3E1E76"/><path d="m23.222 54.186 0.553 0.276Z" fill="#481C72"/><path d="m97.59 52.251 0.553 0.276Z" fill="#401275"/><path d="m75.473 52.251 0.553 0.276Z" fill="#381965"/><path d="m75.749 45.339 0.553 0.276Z" fill="#451783"/><path d="m105.054 41.469 0.553 0.276Z" fill="#38185B"/><path d="m75.473 41.469 0.553 0.276Z" fill="#431A71"/><path d="m42.298 40.363 0.553 0.276Z" fill="#461973"/><path d="m41.469 40.086 0.553 0.276Z" fill="#4A1783"/><path d="m42.298 37.322 0.553 0.276Z" fill="#531480"/><path d="m30.687 36.492 0.553 0.276Z" fill="#4C187E"/><path d="m32.622 36.216 0.553 0.276Z" fill="#431B7C"/><path d="m29.857 36.216 0.553 0.276Z" fill="#40198A"/><path d="m33.451 35.94 0.553 0.276Z" fill="#3C127F"/><path d="m29.028 35.94 0.553 0.276Z" fill="#451B75"/><path d="m28.199 35.663 0.553 0.276Z" fill="#4B1784"/><path d="m27.369 35.387 0.553 0.276Z" fill="#491982"/><path d="m26.816 34.557 0.553 0.276Z" fill="#4B148A"/><path d="m27.646 34.281 0.553 0.276Z" fill="#461786"/><path d="m28.475 34.004 0.553 0.276Z" fill="#461A76"/><path d="m29.305 33.728 0.553 0.276Z" fill="#461681"/><path d="m54.462 33.175 0.553 0.276Z" fill="#4A1186"/><path d="m18.523 32.898 0.553 0.276Z" fill="#441784"/><path d="m32.622 32.622 0.553 0.276Z" fill="#421D69"/><path d="m33.451 32.346 0.553 0.276Z" fill="#471A81"/><path d="m34.281 32.069 0.553 0.276Z" fill="#471983"/><path d="m45.616 31.793 0.553 0.276Z" fill="#4B1590"/><path d="m35.11 31.793 0.553 0.276Z" fill="#4C1878"/><path d="m40.086 30.134 0.553 0.276Z" fill="#421378"/><path d="m40.916 29.857 0.553 0.276Z" fill="#471785"/><path d="m41.745 29.581 0.553 0.276Z" fill="#431A76"/><path d="m42.575 29.305 0.553 0.276Z" fill="#471382"/><path d="m9.676 7.741 0.553 0.276Z" fill="#40187D"/><path d="m10.229 7.464 0.553 0.276Z" fill="#46168E"/><path d="m126.894 0.829 0.553 0.276Z" fill="#4C1888"/><path d="m1.106 0.553 0.553 0.276Z" fill="#4C1777"/></svg>