<?xml version="1.0" encoding="UTF-8"?>
<svg version="1.1" xmlns="http://www.w3.org/2000/svg" width="30" height="30">
<path d="M0 0 C1.31871094 -0.00386719 1.31871094 -0.00386719 2.6640625 -0.0078125 C3.57929688 -0.00007812 4.49453125 0.00765625 5.4375 0.015625 C6.35273438 0.00789062 7.26796875 0.00015625 8.2109375 -0.0078125 C9.09007813 -0.00523438 9.96921875 -0.00265625 10.875 0 C11.67808594 0.00225586 12.48117188 0.00451172 13.30859375 0.00683594 C15.4375 0.265625 15.4375 0.265625 18.4375 2.265625 C18.82568359 4.11328125 18.82568359 4.11328125 18.8359375 6.328125 C18.84173828 7.52308594 18.84173828 7.52308594 18.84765625 8.7421875 C18.83605469 9.57492187 18.82445313 10.40765625 18.8125 11.265625 C18.82410156 12.09835937 18.83570312 12.93109375 18.84765625 13.7890625 C18.84378906 14.58570313 18.83992188 15.38234375 18.8359375 16.203125 C18.83086182 17.29947266 18.83086182 17.29947266 18.82568359 18.41796875 C18.4375 20.265625 18.4375 20.265625 15.4375 22.265625 C13.30859375 22.52441406 13.30859375 22.52441406 10.875 22.53125 C9.55628906 22.53511719 9.55628906 22.53511719 8.2109375 22.5390625 C7.29570312 22.53132813 6.38046875 22.52359375 5.4375 22.515625 C4.52226562 22.52335937 3.60703125 22.53109375 2.6640625 22.5390625 C1.78492188 22.53648438 0.90578125 22.53390625 0 22.53125 C-0.80308594 22.52899414 -1.60617188 22.52673828 -2.43359375 22.52441406 C-4.5625 22.265625 -4.5625 22.265625 -7.5625 20.265625 C-7.95068359 18.41796875 -7.95068359 18.41796875 -7.9609375 16.203125 C-7.96480469 15.40648437 -7.96867188 14.60984375 -7.97265625 13.7890625 C-7.96105469 12.95632812 -7.94945312 12.12359375 -7.9375 11.265625 C-7.95490234 10.01652344 -7.95490234 10.01652344 -7.97265625 8.7421875 C-7.96878906 7.94554687 -7.96492187 7.14890625 -7.9609375 6.328125 C-7.95755371 5.59722656 -7.95416992 4.86632812 -7.95068359 4.11328125 C-7.0855061 -0.00474598 -3.4953655 0.00981844 0 0 Z M2.4375 7.265625 C2.4375 9.905625 2.4375 12.545625 2.4375 15.265625 C4.4175 14.275625 6.3975 13.285625 8.4375 12.265625 C8.4375 11.605625 8.4375 10.945625 8.4375 10.265625 C6.4575 9.275625 4.4775 8.285625 2.4375 7.265625 Z " fill="#000000" transform="translate(9.5625,3.734375)"/>
</svg>
